HIERARCHY
ROOT Hips
{
	OFFSET 0.000000 0.000000 0.000000
	CHANNELS 6 Xposition Yposition Zposition Zrotation Yrotation Xrotation 
	JOINT LHipJoint
	{
		OFFSET 0.000000 0.000000 0.000000
		CHANNELS 3 Zrotation Yrotation Xrotation
		JOINT LeftUpLeg
		{
			OFFSET 1.363060 -1.794630 0.839290
			CHANNELS 3 Zrotation Yrotation Xrotation
			JOINT LeftLeg
			{
				OFFSET 2.448110 -6.726130 0.000000
				CHANNELS 3 Zrotation Yrotation Xrotation
				JOINT LeftFoot
				{
					OFFSET 2.562200 -7.039590 0.000000
					CHANNELS 3 Zrotation Yrotation Xrotation
					JOINT LeftToeBase
					{
						OFFSET 0.157640 -0.433110 2.322550
						CHANNELS 3 Zrotation Yrotation Xrotation
						End Site
						{
							OFFSET 0.000000 0.000000 0.000000
						}
					}
				}
			}
		}
	}
	JOINT RHipJoint
	{
		OFFSET 0.000000 0.000000 0.000000
		CHANNELS 3 Zrotation Yrotation Xrotation
		JOINT RightUpLeg
		{
			OFFSET -1.305520 -1.794630 0.839290
			CHANNELS 3 Zrotation Yrotation Xrotation
			JOINT RightLeg
			{
				OFFSET -2.542530 -6.985550 0.000000
				CHANNELS 3 Zrotation Yrotation Xrotation
				JOINT RightFoot
				{
					OFFSET -2.568260 -7.056230 0.000000
					CHANNELS 3 Zrotation Yrotation Xrotation
					JOINT RightToeBase
					{
						OFFSET -0.164730 -0.452590 2.363150
						CHANNELS 3 Zrotation Yrotation Xrotation
						End Site
						{
							OFFSET 0.000000 0.000000 0.000000
						}
					}
				}
			}
		}
	}
	JOINT LowerBack
	{
		OFFSET 0.000000 0.000000 0.000000
		CHANNELS 3 Zrotation Yrotation Xrotation
		JOINT Spine
		{
			OFFSET 0.028270 2.035590 -0.193380
			CHANNELS 3 Zrotation Yrotation Xrotation
			JOINT Spine1
			{
				OFFSET 0.056720 2.048850 -0.042750
				CHANNELS 3 Zrotation Yrotation Xrotation
				JOINT Neck
				{
					OFFSET 0.000000 0.000000 0.000000
					CHANNELS 3 Zrotation Yrotation Xrotation
					JOINT Neck1
					{
						OFFSET -0.054170 1.746240 0.172020
						CHANNELS 3 Zrotation Yrotation Xrotation
						JOINT Head
						{
							OFFSET 0.104070 1.761360 -0.123970
							CHANNELS 3 Zrotation Yrotation Xrotation
							End Site
							{
								OFFSET 0.000000 0.000000 0.000000
							}
						}
					}
				}
				JOINT LeftShoulder
				{
					OFFSET 0.000000 0.000000 0.000000
					CHANNELS 3 Zrotation Yrotation Xrotation
					JOINT LeftArm
					{
						OFFSET 3.362410 1.200890 -0.311210
						CHANNELS 3 Zrotation Yrotation Xrotation
						JOINT LeftForeArm
						{
							OFFSET 4.983000 -0.000000 -0.000000
							CHANNELS 3 Zrotation Yrotation Xrotation
							JOINT LeftHand
							{
								OFFSET 3.483560 -0.000000 -0.000000
								CHANNELS 3 Zrotation Yrotation Xrotation
								JOINT LeftFingerBase
								{
									OFFSET 0.000000 0.000000 0.000000
									CHANNELS 3 Zrotation Yrotation Xrotation
									JOINT LeftHandIndex1
									{
										OFFSET 0.715260 -0.000000 -0.000000
										CHANNELS 3 Zrotation Yrotation Xrotation
										End Site
										{
											OFFSET 0.000000 0.000000 0.000000
										}
									}
								}
								JOINT LThumb
								{
									OFFSET 0.000000 0.000000 0.000000
									CHANNELS 3 Zrotation Yrotation Xrotation
									End Site
									{
										OFFSET 0.000000 0.000000 0.000000
									}
								}
							}
						}
					}
				}
				JOINT RightShoulder
				{
					OFFSET 0.000000 0.000000 0.000000
					CHANNELS 3 Zrotation Yrotation Xrotation
					JOINT RightArm
					{
						OFFSET -3.136600 1.374050 -0.404650
						CHANNELS 3 Zrotation Yrotation Xrotation
						JOINT RightForeArm
						{
							OFFSET -5.241900 -0.000000 -0.000000
							CHANNELS 3 Zrotation Yrotation Xrotation
							JOINT RightHand
							{
								OFFSET -3.444170 -0.000000 -0.000000
								CHANNELS 3 Zrotation Yrotation Xrotation
								JOINT RightFingerBase
								{
									OFFSET 0.000000 0.000000 0.000000
									CHANNELS 3 Zrotation Yrotation Xrotation
									JOINT RightHandIndex1
									{
										OFFSET -0.622530 -0.000000 -0.000000
										CHANNELS 3 Zrotation Yrotation Xrotation
										End Site
										{
											OFFSET 0.000000 0.000000 0.000000
										}
									}
								}
								JOINT RThumb
								{
									OFFSET 0.000000 0.000000 0.000000
									CHANNELS 3 Zrotation Yrotation Xrotation
									End Site
									{
										OFFSET 0.000000 0.000000 0.000000
									}
								}
							}
						}
					}
				}
			}
		}
	}
}
MOTION
Frames: 6
Frame Time: 0.008333
23.744480 16.253474 2.000122 159.422597 -87.524659 -143.258758 -8.737169 -0.653532 3.066670 -13.252488 -2.081852 -54.035232 -1.503967 1.633416 40.606423 1.540790 6.356306 -8.566824 0.143200 0.000000 -16.931000 11.234038 -5.700204 0.480985 3.638722 -6.670719 4.789463 0.948429 -2.395143 25.518553 0.212277 8.733977 17.437988 3.563000 -0.000000 -89.680100 -12.552132 1.621685 -4.753591 -3.159831 2.347693 -4.261278 -4.276316 2.161524 -0.825055 5.123098 -3.639593 -8.255596 -1.374591 -0.097954 -0.202311 0.000000 0.000000 0.000000 -3.685736 17.136906 2.727151 -48.667686 35.313743 12.156724 -5.196524 -18.853866 -0.017944 -1.610051 4.881131 -0.063652 -0.161635 -0.131690 -0.000000 0.000000 0.000000 0.000000 0.000000 0.000000 0.000000 1.942401 2.961079 0.090180 28.179832 55.083402 8.207164 0.286107 76.718903 -0.002441 1.665226 7.103124 0.122134 -0.154028 -0.581204 0.000000 0.000000 0.000000 0.000000 0.000000 0.000000 0.000000 
23.582378 16.212889 2.015027 156.594270 -87.520400 -140.918854 -8.630029 -0.625741 2.763587 -13.828685 -1.573217 -53.644406 -1.448922 1.737328 42.438901 1.505074 6.081991 -9.333038 0.001900 0.000000 -16.501400 11.578421 -5.688664 0.344430 2.769017 -7.319867 3.827445 0.724502 -2.618174 28.828519 0.099083 9.384263 18.878757 4.111600 -0.000000 -88.415800 -12.673435 1.567724 -4.308274 -3.206184 2.297403 -4.194866 -4.398795 2.127723 -0.909586 5.320785 -3.271433 -8.225571 -1.496755 -0.107190 -0.208754 0.000000 0.000000 0.000000 -4.145316 16.680774 2.797982 -48.679977 33.979506 11.918592 -5.208942 -17.872317 -0.016167 -1.138873 4.742347 -0.041952 -0.159159 -0.126437 -0.000000 0.000000 0.000000 0.000000 0.000000 0.000000 0.000000 2.507880 3.457018 0.274994 30.838671 54.370061 9.797348 0.320663 76.241473 -0.001988 1.524861 7.066924 0.111368 -0.140761 -0.576048 0.000000 0.000000 0.000000 0.000000 0.000000 0.000000 0.000000 
23.423664 16.168294 2.031214 154.233489 -87.416348 -139.085069 -8.537859 -0.579908 2.447866 -14.435999 -0.950984 -53.195333 -1.413993 1.838093 44.212486 1.473937 5.782216 -10.276021 -0.154300 0.000000 -16.154000 11.899272 -5.640826 0.197670 1.869320 -7.962374 2.787261 0.492169 -2.828878 32.335780 -0.047603 9.600615 20.167871 4.477300 0.000000 -86.305900 -12.792635 1.530420 -3.845277 -3.252589 2.263538 -4.128950 -4.529995 2.109194 -1.006076 5.519470 -2.871702 -8.172228 -1.630622 -0.117644 -0.209319 0.000000 0.000000 0.000000 -4.626850 16.215468 2.873368 -48.699257 32.590629 11.807266 -5.221622 -16.869277 -0.014562 -0.717304 4.615380 -0.023454 -0.155905 -0.120957 -0.000000 0.000000 0.000000 0.000000 0.000000 0.000000 0.000000 3.115706 4.005145 0.450680 33.522231 53.552064 11.376433 0.358435 75.661348 -0.001790 1.350210 7.041302 0.098402 -0.126498 -0.570015 0.000000 0.000000 0.000000 0.000000 0.000000 0.000000 0.000000 
23.268341 16.119950 2.048685 152.334994 -87.232618 -137.739014 -8.463633 -0.520528 2.125770 -15.060383 -0.236487 -52.704253 -1.395510 1.935973 45.926638 1.450012 5.476720 -11.368853 -0.318500 0.000000 -15.911000 12.190133 -5.561010 0.042671 0.968023 -8.582021 1.672344 0.255589 -3.031731 36.006084 -0.225941 9.237586 21.226300 4.554300 0.000001 -83.479500 -12.908132 1.504348 -3.372936 -3.297851 2.240826 -4.065414 -4.669071 2.100216 -1.115882 5.721294 -2.440086 -8.091422 -1.775019 -0.129272 -0.202724 0.000000 0.000000 0.000000 -5.125242 15.736310 2.954223 -48.727469 31.144158 11.820357 -5.235515 -15.835647 -0.013137 -0.347333 4.498600 -0.008157 -0.152062 -0.115080 -0.000000 0.000000 0.000000 0.000000 0.000000 0.000000 0.000000 3.762335 4.600295 0.612334 36.222856 52.608250 12.926203 0.400393 74.984961 -0.001881 1.138648 7.033404 0.083333 -0.111364 -0.563256 0.000000 0.000000 0.000000 0.000000 0.000000 0.000000 0.000000 
23.116273 16.068488 2.067249 150.786959 -86.995467 -136.757856 -8.402916 -0.450546 1.803903 -15.688848 0.537487 -52.182712 -1.388998 2.029805 47.577781 1.436077 5.188009 -12.577721 -0.484900 0.000000 -15.783600 12.454811 -5.453159 -0.119839 0.087052 -9.172866 0.482628 0.017443 -3.232677 39.808513 -0.433451 8.206593 21.967566 4.264500 -0.000000 -80.042500 -13.016381 1.483768 -2.897156 -3.340936 2.223362 -4.005067 -4.816170 2.094710 -1.238216 5.932445 -1.983348 -7.981474 -1.929336 -0.142030 -0.188465 0.000000 0.000000 0.000000 -5.627412 15.239319 3.041549 -48.774478 29.626968 11.936767 -5.250977 -14.756364 -0.011887 -0.024249 4.392163 0.004539 -0.147817 -0.108550 -0.000000 0.000000 0.000000 0.000000 0.000000 0.000000 0.000000 4.453848 5.228713 0.755906 38.914296 51.526284 14.423667 0.446925 74.215380 -0.002349 0.880009 7.054160 0.065356 -0.095432 -0.556048 0.000000 0.000000 0.000000 0.000000 0.000000 0.000000 0.000000 
22.967163 16.014723 2.086768 149.455533 -86.731595 -135.995988 -8.349475 -0.371565 1.489401 -16.308000 1.331240 -51.637983 -1.389749 2.118254 49.160446 1.434667 4.938402 -13.865947 -0.650500 -0.000000 -15.769700 12.699961 -5.320473 -0.289446 -0.753774 -9.731240 -0.781313 -0.221074 -3.437587 43.710441 -0.667713 6.490372 22.303763 3.580000 -0.000000 -76.114400 -13.111980 1.464220 -2.422940 -3.380647 2.206350 -3.948405 -4.971104 2.087795 -1.371733 6.157572 -1.511353 -7.841909 -2.092455 -0.155812 -0.166361 0.000000 0.000000 0.000000 -6.120526 14.718982 3.135522 -48.850202 28.024869 12.129851 -5.267568 -13.618541 -0.010793 0.264095 4.294736 0.015337 -0.143320 -0.101104 -0.000000 0.000000 0.000000 0.000000 0.000000 0.000000 0.000000 5.193534 5.872476 0.878226 41.572368 50.297139 15.845312 0.497857 73.352541 -0.003255 0.566348 7.113426 0.043773 -0.078854 -0.548633 0.000000 0.000000 0.000000 0.000000 0.000000 0.000000 0.000000 
